# xmcd
#
# Track frame offsets:
#   150
#   10666
#   22867
#   44145
#   65601
#   78255
#   89257
#   103098
#   119610
#   131946
#   142568
#   152465
#   168346
#   178649
#   198440
#   217171
#   231937
#   258907
#   273910
#   290621
#   309595
#
# Disc length: 4325 seconds
#
# Revision: 0
# Processed by: cddbd v1.4PL0 Copyright (c) Steve Scherf et al.
# Submitted via: uFREEDB 1.6.0
#
DISCID=2810e315
DTITLE=Uncle Tupelo - An Anthology: 89/93
DYEAR=1900
DGENRE=Country
TTITLE0=No Depression
TTITLE1=Screen Door
TTITLE2=Graveyard Shift
TTITLE3=Whiskey Bottle
TTITLE4=Outdone
TTITLE5=I Got Drunk
TTITLE6=I Wanna Be Your Dog
TTITLE7=Gun
TTITLE8=Still Be Around
TTITLE9=Looking For A Way Out
TTITLE10=Watch Me Fall
TTITLE11=Suaget Wind
TTITLE12=Black Eye
TTITLE13=Moonshiner
TTITLE14=Fatal Wound
TTITLE15=Grindstone
TTITLE16=Effigy
TTITLE17=The Long Cut
TTITLE18=Chickamauga
TTITLE19=New Madrid (Jeff Tweedy Live)
TTITLE20=We've Been Had (Live)
EXTD=
EXTT0=
EXTT1=
EXTT2=
EXTT3=
EXTT4=
EXTT5=
EXTT6=
EXTT7=
EXTT8=
EXTT9=
EXTT10=
EXTT11=
EXTT12=
EXTT13=
EXTT14=
EXTT15=
EXTT16=
EXTT17=
EXTT18=
EXTT19=
EXTT20=
PLAYORDER=
